<?xml version="1.0" encoding="utf-8"?> <!-- Generator: IcoMoon.io --> <!DOCTYPE svg PUBLIC "-//W3C//DTD SVG 1.1//EN" "http://www.w3.org/Graphics/SVG/1.1/DTD/svg11.dtd"> <svg width="120" height="24" viewBox="0 0 120 24" fill="#ffffff" xmlns="http://www.w3.org/2000/svg" xmlns:xlink="http://www.w3.org/1999/xlink"><path d="M16.4,6.5l-0.7-0.7l-6.3,6.3L3.1,5.8L2.4,6.5l6.3,6.3l-6.3,6.3l0.7,0.7l6.3-6.3l6.3,6.3l0.7-0.7l-6.3-6.3
	L16.4,6.5z M60.5,2.9l-0.7-0.7l-8.2,8.2l-0.8,0.7l0.8,0.8l8.2,8.2l0.7-0.7l-8.2-8.3L60.5,2.9z M99.3,2.9l0.7-0.7l8.3,8.2l0.7,0.7
	l-0.7,0.8l-8.3,8.2l-0.7-0.7l8.3-8.3L99.3,2.9z"></path></svg>